<svg xmlns="http://www.w3.org/2000/svg" xmlns:xlink="http://www.w3.org/1999/xlink" version="1.0" x="0" y="0" width="2400" height="765.6648355198415" viewBox="48.03740280151367 87.04771774291993 237.92519439697264 75.90456451416016" preserveAspectRatio="xMidYMid meet" color-interpolation-filters="sRGB"><g><defs><linearGradient id="92" x1="0%" y1="0%" x2="100%" y2="0%"><stop offset="0%" stop-color="#fa71cd"></stop> <stop offset="100%" stop-color="#9b59b6"></stop></linearGradient><linearGradient id="93" x1="0%" y1="0%" x2="100%" y2="0%"><stop offset="0%" stop-color="#f9d423"></stop> <stop offset="100%" stop-color="#f83600"></stop></linearGradient><linearGradient id="94" x1="0%" y1="0%" x2="100%" y2="0%"><stop offset="0%" stop-color="#0064d2"></stop> <stop offset="100%" stop-color="#1cb0f6"></stop></linearGradient><linearGradient id="95" x1="0%" y1="0%" x2="100%" y2="0%"><stop offset="0%" stop-color="#f00978"></stop> <stop offset="100%" stop-color="#3f51b1"></stop></linearGradient><linearGradient id="96" x1="0%" y1="0%" x2="100%" y2="0%"><stop offset="0%" stop-color="#7873f5"></stop> <stop offset="100%" stop-color="#ec77ab"></stop></linearGradient><linearGradient id="97" x1="0%" y1="0%" x2="100%" y2="0%"><stop offset="0%" stop-color="#f9d423"></stop> <stop offset="100%" stop-color="#e14fad"></stop></linearGradient><linearGradient id="98" x1="0%" y1="0%" x2="100%" y2="0%"><stop offset="0%" stop-color="#009efd"></stop> <stop offset="100%" stop-color="#2af598"></stop></linearGradient><linearGradient id="99" x1="0%" y1="0%" x2="100%" y2="0%"><stop offset="0%" stop-color="#ffcc00"></stop> <stop offset="100%" stop-color="#00b140"></stop></linearGradient><linearGradient id="100" x1="0%" y1="0%" x2="100%" y2="0%"><stop offset="0%" stop-color="#d51007"></stop> <stop offset="100%" stop-color="#ff8177"></stop></linearGradient><linearGradient id="102" x1="0%" y1="0%" x2="100%" y2="0%"><stop offset="0%" stop-color="#a2b6df"></stop> <stop offset="100%" stop-color="#0c3483"></stop></linearGradient><linearGradient id="103" x1="0%" y1="0%" x2="100%" y2="0%"><stop offset="0%" stop-color="#7ac5d8"></stop> <stop offset="100%" stop-color="#eea2a2"></stop></linearGradient><linearGradient id="104" x1="0%" y1="0%" x2="100%" y2="0%"><stop offset="0%" stop-color="#00ecbc"></stop> <stop offset="100%" stop-color="#007adf"></stop></linearGradient><linearGradient id="105" x1="0%" y1="0%" x2="100%" y2="0%"><stop offset="0%" stop-color="#b88746"></stop> <stop offset="100%" stop-color="#fdf5a6"></stop></linearGradient></defs><g fill="#0a0619" class="icon-text-wrapper icon-svg-group iconsvg" transform="translate(56.37000274658203,95.38031768798828)"><g class="iconsvg-imagesvg" transform="translate(0,0)" mask="url(#0b8d6736-680e-4a90-a869-4c390e4ba3be)"><g><rect fill="#0a0619" fill-opacity="0" stroke-width="2" x="0" y="0" width="60" height="59.239366533707205" class="image-rect"></rect> <svg filter="url(#colors4334318546)" x="0" y="0" width="60" height="59.239366533707205" filtersec="colorsf3615703699" class="image-svg-svg primary" style="overflow: visible;"><svg xmlns="http://www.w3.org/2000/svg" viewBox="-0.014171361923217773 0.011914417147636414 62.5697135925293 61.77642822265625"><path d="M7.76 21.64v13.92A2.1 2.1 0 0 0 9.59 38c9.32 2.44 18.62 5 27.92 7.45 3.06.82 3.07.8 3.07 3.89v9.1a1.74 1.74 0 0 1-1.53 2c-1.57.36-3.11.81-4.65 1.24-1.08.3-1.54 0-1.52-1.19 0-2-.09-4.06 0-6.07.11-1.64-.57-2.28-2.09-2.67-9.49-2.49-19-5.11-28.44-7.58C.57 43.72 0 42.92 0 41Q.15 25.4 0 9.78C0 8.07.55 7.28 2.2 7a30.4 30.4 0 0 0 4-1c1.19-.36 1.62 0 1.61 1.24-.08 4.76-.06 9.58-.05 14.4zM54.7 40.38c0-4.52-.05-9 0-13.57a2.19 2.19 0 0 0-1.93-2.59c-9.56-2.49-19.07-5.12-28.63-7.59-1.79-.46-2.4-1.24-2.33-3.06.19-3.27.19-6.57.04-9.82a2.15 2.15 0 0 1 2-2.56 33.62 33.62 0 0 0 3.79-1c1.33-.41 2-.18 1.92 1.41-.1 2.2.05 4.41 0 6.61a1.89 1.89 0 0 0 1.68 2.23c9.37 2.47 18.73 5 28.1 7.52 3.1.83 3.1.81 3.1 4v30c0 1.66-.43 2.56-2.14 2.83a34.94 34.94 0 0 0-3.62.93c-1.92.51-2 .47-2-1.59q.02-6.87.02-13.75z" fill="#000000"></path><path d="M10.86 19.91V6.71c0-1.53.5-2.3 2-2.57a28.93 28.93 0 0 0 4-1.06c1.51-.5 2 0 2 1.55-.05 7.26 0 14.52 0 21.77 0 2.73 0 2.73 2.63 3.44 5.74 1.54 11.47 3.12 17.23 4.59 1.5.38 2.07 1.08 2 2.6s0 3.09 0 4.63c0 1.07-.37 1.53-1.54 1.21q-13.58-3.63-27.01-7.21c-1.25-.33-1.32-1.19-1.31-2.18z" fill="#000000"></path><path d="M51.6 42v13c0 1.47-.38 2.35-2 2.62-1.34.22-2.64.7-4 1-1.87.47-2 .37-2-1.64 0-7.32-.06-14.65 0-22 0-1.74-.52-2.52-2.24-2.94-5.83-1.38-11.73-3.04-17.67-4.55-1.34-.34-1.91-1-1.82-2.35a33.16 33.16 0 0 0 0-4.11c-.1-1.61.52-1.94 2-1.53 6.65 1.84 13.33 3.6 20 5.39 1.95.53 3.88 1.15 5.86 1.55 1.48.3 1.9 1.08 1.88 2.49-.05 4.35-.01 8.7-.01 13.07zM62.41 11.66c-.07 4.37.64 4.22-4 3C50.6 12.59 42.79 10.49 35 8.49c-1.53-.39-2.23-1-2.07-2.68a25.51 25.51 0 0 0 0-4.1c-.12-1.62.49-1.94 2-1.53 6.25 1.73 12.51 3.39 18.77 5.07 2.13.58 4.23 1.25 6.39 1.66 1.86.36 2.72 1.22 2.4 3.15a10.67 10.67 0 0 0-.08 1.6zM29.56 58.21c0 3.88 0 3.89-3.76 2.9C17.87 59 10 56.89 2 54.86c-1.48-.38-2.12-1-2-2.58a22.24 22.24 0 0 0 0-3.74c-.09-1.65.57-1.93 2-1.54 6.53 1.81 13.08 3.56 19.62 5.33 1.84.5 3.65 1.12 5.52 1.46S29.9 55 29.57 57a7.44 7.44 0 0 0-.01 1.21z" fill="#000000"></path></svg></svg> <defs><filter id="colors4334318546"><feColorMatrix type="matrix" values="0 0 0 0 0.0390625  0 0 0 0 0.0234375  0 0 0 0 0.09765625  0 0 0 1 0" class="icon-feColorMatrix "></feColorMatrix></filter> <filter id="colorsf3615703699"><feColorMatrix type="matrix" values="0 0 0 0 0.99609375  0 0 0 0 0.99609375  0 0 0 0 0.99609375  0 0 0 1 0" class="icon-fecolormatrix"></feColorMatrix></filter> <filter id="colorsb566935823"><feColorMatrix type="matrix" values="0 0 0 0 0  0 0 0 0 0  0 0 0 0 0  0 0 0 1 0" class="icon-fecolormatrix"></feColorMatrix></filter></defs></g><rect v-gra="id" width="72" height="71.23936462402344" transform="translate(-6, -6)" style="pointer-events:none;" fill="url(#CCBNUY351ajdJ4jOz34mW)"></rect></g> <g transform="translate(67,5.431003570556641)"><g fill-rule="" class="tp-name iconsvg-namesvg" transform="translate(0,0)"><g transform="scale(1)"><g><path d="M16.8-34.38Q21.66-34.38 25.02-33.48 28.38-32.58 30.39-30.03 32.4-27.48 32.4-22.74L32.4-22.74Q32.4-20.64 31.77-18.45 31.14-16.26 30.21-14.64 29.28-13.02 28.56-12.54L28.56-12.54Q27.72-11.94 24.84-11.61 21.96-11.28 18.06-11.28L18.06-11.28Q16.68-11.28 13.8-11.4L13.8-11.4 13.8 0 3 0 3-34.2Q9.3-34.38 16.8-34.38L16.8-34.38ZM21.3-18.96Q21.9-19.74 21.9-22.08L21.9-22.08Q21.9-25.14 20.61-26.4 19.32-27.66 16.14-27.66L16.14-27.66Q15.06-27.66 13.8-27.48L13.8-27.48 13.8-18.36Q14.4-18.3 16.14-18.3L16.14-18.3Q20.76-18.3 21.3-18.96L21.3-18.96ZM64.44-11.28L67.38 0 56.04 0 54-8.64Q53.88-9.12 53.61-10.29 53.34-11.46 52.98-12.03 52.62-12.6 51.96-12.78L51.96-12.78Q50.28-12.72 47.04-12.72L47.04-12.72 47.04 0 36.24 0 36.24-33.9Q43.5-34.44 49.8-34.44L49.8-34.44Q55.5-34.44 59.04-33.51 62.58-32.58 64.35-30.33 66.12-28.08 66.12-24.18L66.12-24.18Q66.12-20.52 64.44-18.45 62.76-16.38 59.04-15.96L59.04-15.96 59.04-15.6Q61.14-15.42 62.55-14.25 63.96-13.08 64.44-11.28L64.44-11.28ZM47.04-19.5Q47.58-19.44 49.14-19.44L49.14-19.44Q53.76-19.44 54.54-20.22L54.54-20.22Q55.26-20.94 55.26-23.58L55.26-23.58Q55.26-26.04 53.97-26.94 52.68-27.84 49.74-27.84L49.74-27.84Q49.08-27.84 47.04-27.72L47.04-27.72 47.04-19.5ZM71.1 0L71.1-34.2 81.9-34.2 81.9 0 71.1 0ZM130.68-34.2L132.06 0 121.98 0 121.2-18.84Q121.02-24.42 120.78-27.3L120.78-27.3 120.6-27.3Q119.88-25.02 118.92-20.22L118.92-20.22 118.62-18.72 114.48 0 104.4 0 100.92-16.86 100.32-19.86Q99.06-25.44 98.58-27.3L98.58-27.3 98.4-27.3Q98.16-24.3 97.98-17.52L97.98-17.52Q97.92-17.1 97.92-16.2L97.92-16.2 97.38 0 87.24 0 88.68-34.2 105.84-34.2 108.78-19.44 109.5-15.48Q109.98-17.34 110.4-19.62L110.4-19.62 113.16-34.2 130.68-34.2ZM147.18-24.96Q147.18-23.7 148.47-22.98 149.76-22.26 152.52-21.42L152.52-21.42Q155.82-20.34 157.95-19.32 160.08-18.3 161.67-16.14 163.26-13.98 163.26-10.5L163.26-10.5Q163.26 0.66 148.74 0.66L148.74 0.66Q146.34 0.66 142.89 0.24 139.44-0.18 136.62-0.84L136.62-0.84Q136.74-2.1 137.13-4.53 137.52-6.96 137.88-8.16L137.88-8.16Q139.98-7.86 144.21-7.44 148.44-7.02 150.6-7.02L150.6-7.02Q151.86-7.02 152.1-7.2L152.1-7.2Q152.46-7.44 152.67-8.01 152.88-8.58 152.88-9L152.88-9Q152.88-10.2 151.74-10.83 150.6-11.46 147.84-12.36L147.84-12.36Q144.54-13.38 142.38-14.46 140.22-15.54 138.6-17.82 136.98-20.1 136.98-23.82L136.98-23.82Q136.98-26.46 138.18-29.01 139.38-31.56 140.64-32.46L140.64-32.46Q141.6-33.12 144.6-33.72 147.6-34.32 150.24-34.32L150.24-34.32Q156.96-34.32 161.22-33.06L161.22-33.06Q161.16-31.86 160.83-29.76 160.5-27.66 160.14-25.92L160.14-25.92 158.76-25.98Q150.96-26.52 148.8-26.52L148.8-26.52Q147.9-26.52 147.78-26.46L147.78-26.46Q147.54-26.34 147.36-25.92 147.18-25.5 147.18-24.96L147.18-24.96Z" transform="translate(-3, 34.439998626708984)"></path></g> </g></g> <g fill-rule="" class="tp-slogan iconsvg-slogansvg" fill="url(#7b533711-bcf2-401a-ac86-7205425b2f45)" transform="translate(0.25,41.10000228881836)"><rect width="0"></rect> <rect x="162.75999450683594" width="0"></rect> <g transform="translate(0,0)"><g transform="scale(1)"><path d="M0.96-7.02L0.96 0L1.85 0L1.85-2.78L3.11-2.78C3.50-2.78 3.85-2.83 4.17-2.92C4.48-3.00 4.76-3.14 4.99-3.32C5.21-3.50 5.39-3.72 5.52-3.99C5.64-4.26 5.70-4.58 5.70-4.95C5.70-5.34 5.64-5.66 5.52-5.93C5.39-6.19 5.22-6.40 4.99-6.56C4.77-6.72 4.49-6.84 4.17-6.91C3.85-6.98 3.50-7.02 3.11-7.02ZM3.01-3.51L1.85-3.51L1.85-6.30L3.01-6.30C3.61-6.30 4.07-6.20 4.37-6.01C4.67-5.81 4.81-5.46 4.81-4.95C4.81-4.45 4.67-4.09 4.37-3.86C4.07-3.63 3.62-3.51 3.01-3.51ZM7.45-3.69L7.45-6.30L8.62-6.30C9.17-6.30 9.59-6.21 9.89-6.02C10.18-5.84 10.32-5.51 10.32-5.05C10.32-4.59 10.18-4.25 9.89-4.03C9.59-3.80 9.17-3.69 8.62-3.69ZM10.41 0L11.42 0L9.64-3.06C10.12-3.18 10.50-3.41 10.78-3.73C11.07-4.06 11.21-4.50 11.21-5.05C11.21-5.41 11.15-5.72 11.03-5.97C10.91-6.22 10.74-6.42 10.52-6.58C10.30-6.74 10.04-6.85 9.74-6.92C9.44-6.99 9.11-7.02 8.75-7.02L6.56-7.02L6.56 0L7.45 0L7.45-2.96L8.72-2.96ZM15.08-2.86L12.98-2.86L13.31-3.93C13.44-4.32 13.56-4.71 13.67-5.10C13.79-5.49 13.90-5.88 14.00-6.29L14.05-6.29C14.16-5.88 14.27-5.49 14.39-5.10C14.50-4.71 14.62-4.32 14.75-3.93ZM15.31-2.14L15.97 0L16.92 0L14.55-7.02L13.54-7.02L11.17 0L12.08 0L12.75-2.14ZM16.84-3.51C16.84-2.94 16.91-2.43 17.07-1.97C17.22-1.52 17.43-1.14 17.71-0.83C17.98-0.52 18.31-0.28 18.68-0.12C19.06 0.05 19.47 0.13 19.91 0.13C20.36 0.13 20.76 0.04 21.11-0.14C21.46-0.32 21.77-0.57 22.05-0.89L21.54-1.43C21.32-1.18 21.08-0.99 20.82-0.86C20.57-0.72 20.27-0.65 19.93-0.65C19.59-0.65 19.29-0.72 19.03-0.86C18.76-0.99 18.53-1.18 18.35-1.43C18.16-1.68 18.02-1.98 17.91-2.34C17.81-2.69 17.76-3.09 17.76-3.53C17.76-3.97 17.81-4.36 17.92-4.71C18.02-5.06 18.17-5.36 18.37-5.60C18.56-5.85 18.79-6.04 19.06-6.17C19.33-6.30 19.64-6.37 19.97-6.37C20.27-6.37 20.53-6.31 20.76-6.19C20.98-6.07 21.19-5.91 21.37-5.71L21.88-6.28C21.67-6.51 21.41-6.71 21.08-6.89C20.76-7.06 20.39-7.15 19.96-7.15C19.51-7.15 19.10-7.06 18.71-6.90C18.33-6.73 18.00-6.49 17.73-6.17C17.45-5.86 17.23-5.48 17.07-5.03C16.92-4.58 16.84-4.07 16.84-3.51ZM24.05-6.27L24.05 0L24.95 0L24.95-6.27L27.06-6.27L27.06-7.02L21.93-7.02L21.93-6.27ZM27.76-7.02L27.76 0L28.65 0L28.65-7.02ZM31.46-6.27L31.46 0L32.36 0L32.36-6.27L34.48-6.27L34.48-7.02L29.34-7.02L29.34-6.27ZM35.17-7.02L35.17 0L36.06 0L36.06-7.02ZM40.01 0.13C40.45 0.13 40.85 0.04 41.22-0.13C41.59-0.30 41.90-0.54 42.17-0.86C42.44-1.18 42.65-1.56 42.79-2.02C42.94-2.47 43.01-2.98 43.01-3.54C43.01-4.10 42.94-4.60 42.79-5.04C42.65-5.49 42.44-5.87 42.17-6.18C41.90-6.49 41.59-6.73 41.22-6.90C40.85-7.06 40.45-7.15 40.01-7.15C39.56-7.15 39.16-7.07 38.79-6.90C38.42-6.74 38.11-6.50 37.84-6.19C37.58-5.88 37.38-5.50 37.23-5.06C37.08-4.61 37.01-4.11 37.01-3.54C37.01-2.98 37.08-2.47 37.23-2.02C37.38-1.56 37.58-1.18 37.84-0.86C38.11-0.54 38.42-0.30 38.79-0.13C39.16 0.04 39.56 0.13 40.01 0.13ZM40.01-0.65C39.69-0.65 39.41-0.72 39.15-0.86C38.90-0.99 38.68-1.19 38.50-1.44C38.32-1.69 38.18-2.00 38.08-2.35C37.98-2.70 37.93-3.10 37.93-3.54C37.93-3.98 37.98-4.37 38.08-4.72C38.18-5.07 38.32-5.36 38.50-5.61C38.68-5.85 38.90-6.04 39.15-6.17C39.41-6.30 39.69-6.37 40.01-6.37C40.32-6.37 40.60-6.30 40.86-6.17C41.11-6.04 41.33-5.85 41.51-5.61C41.69-5.36 41.83-5.07 41.93-4.72C42.03-4.37 42.08-3.98 42.08-3.54C42.08-3.10 42.03-2.70 41.93-2.35C41.83-2.00 41.69-1.69 41.51-1.44C41.33-1.19 41.11-0.99 40.86-0.86C40.60-0.72 40.32-0.65 40.01-0.65ZM43.95-7.02L43.95 0L44.80 0L44.80-3.67C44.80-4.04 44.78-4.41 44.76-4.78C44.74-5.14 44.71-5.51 44.68-5.86L44.72-5.86L45.48-4.42L48.03 0L48.95 0L48.95-7.02L48.10-7.02L48.10-3.39C48.10-3.02 48.12-2.64 48.14-2.26C48.17-1.88 48.19-1.51 48.21-1.16L48.17-1.16L47.41-2.61L44.87-7.02ZM50.31-7.02L50.31 0L54.46 0L54.46-0.76L51.19-0.76L51.19-3.31L53.86-3.31L53.86-4.07L51.19-4.07L51.19-6.27L54.35-6.27L54.35-7.02ZM56.26-3.69L56.26-6.30L57.44-6.30C57.99-6.30 58.41-6.21 58.70-6.02C59.00-5.84 59.14-5.51 59.14-5.05C59.14-4.59 59.00-4.25 58.70-4.03C58.41-3.80 57.99-3.69 57.44-3.69ZM59.23 0L60.23 0L58.46-3.06C58.94-3.18 59.32-3.41 59.60-3.73C59.89-4.06 60.03-4.50 60.03-5.05C60.03-5.41 59.97-5.72 59.85-5.97C59.73-6.22 59.56-6.42 59.34-6.58C59.12-6.74 58.86-6.85 58.56-6.92C58.26-6.99 57.93-7.02 57.57-7.02L55.38-7.02L55.38 0L56.26 0L56.26-2.96L57.54-2.96ZM62.62-7.02L62.62 0L63.51 0L63.51-7.02ZM64.86-7.02L64.86 0L65.71 0L65.71-3.67C65.71-4.04 65.70-4.41 65.67-4.78C65.65-5.14 65.62-5.51 65.59-5.86L65.63-5.86L66.39-4.42L68.94 0L69.86 0L69.86-7.02L69.01-7.02L69.01-3.39C69.01-3.02 69.03-2.64 69.05-2.26C69.08-1.88 69.10-1.51 69.12-1.16L69.08-1.16L68.32-2.61L65.78-7.02ZM70.25-7.02L72.50 0L73.54 0L75.76-7.02L74.86-7.02L73.73-3.23C73.61-2.81 73.50-2.42 73.40-2.07C73.30-1.71 73.19-1.32 73.06-0.91L73.01-0.91C72.88-1.32 72.76-1.71 72.67-2.07C72.57-2.42 72.46-2.81 72.33-3.23L71.21-7.02ZM78.64 0.13C79.08 0.13 79.49 0.04 79.86-0.13C80.22-0.30 80.54-0.54 80.81-0.86C81.08-1.18 81.28-1.56 81.43-2.02C81.57-2.47 81.65-2.98 81.65-3.54C81.65-4.10 81.57-4.60 81.43-5.04C81.28-5.49 81.08-5.87 80.81-6.18C80.54-6.49 80.22-6.73 79.86-6.90C79.49-7.06 79.08-7.15 78.64-7.15C78.20-7.15 77.79-7.07 77.43-6.90C77.06-6.74 76.74-6.50 76.48-6.19C76.22-5.88 76.01-5.50 75.86-5.06C75.72-4.61 75.65-4.11 75.65-3.54C75.65-2.98 75.72-2.47 75.86-2.02C76.01-1.56 76.22-1.18 76.48-0.86C76.74-0.54 77.06-0.30 77.43-0.13C77.79 0.04 78.20 0.13 78.64 0.13ZM78.64-0.65C78.33-0.65 78.04-0.72 77.79-0.86C77.54-0.99 77.32-1.19 77.14-1.44C76.96-1.69 76.82-2.00 76.72-2.35C76.62-2.70 76.57-3.10 76.57-3.54C76.57-3.98 76.62-4.37 76.72-4.72C76.82-5.07 76.96-5.36 77.14-5.61C77.32-5.85 77.54-6.04 77.79-6.17C78.04-6.30 78.33-6.37 78.64-6.37C78.96-6.37 79.24-6.30 79.49-6.17C79.75-6.04 79.96-5.85 80.14-5.61C80.33-5.36 80.47-5.07 80.57-4.72C80.67-4.37 80.72-3.98 80.72-3.54C80.72-3.10 80.67-2.70 80.57-2.35C80.47-2.00 80.33-1.69 80.14-1.44C79.96-1.19 79.75-0.99 79.49-0.86C79.24-0.72 78.96-0.65 78.64-0.65ZM82.59-7.02L82.59 0L83.48 0L83.48-7.02ZM84.43-3.51C84.43-2.94 84.50-2.43 84.66-1.97C84.81-1.52 85.02-1.14 85.30-0.83C85.57-0.52 85.90-0.28 86.27-0.12C86.65 0.05 87.06 0.13 87.50 0.13C87.95 0.13 88.35 0.04 88.70-0.14C89.05-0.32 89.36-0.57 89.64-0.89L89.13-1.43C88.91-1.18 88.67-0.99 88.41-0.86C88.16-0.72 87.86-0.65 87.52-0.65C87.18-0.65 86.88-0.72 86.62-0.86C86.35-0.99 86.12-1.18 85.94-1.43C85.75-1.68 85.61-1.98 85.50-2.34C85.40-2.69 85.35-3.09 85.35-3.53C85.35-3.97 85.40-4.36 85.51-4.71C85.61-5.06 85.76-5.36 85.96-5.60C86.15-5.85 86.38-6.04 86.65-6.17C86.92-6.30 87.23-6.37 87.56-6.37C87.86-6.37 88.12-6.31 88.35-6.19C88.57-6.07 88.78-5.91 88.96-5.71L89.47-6.28C89.26-6.51 89.00-6.71 88.67-6.89C88.35-7.06 87.98-7.15 87.55-7.15C87.10-7.15 86.69-7.06 86.30-6.90C85.92-6.73 85.59-6.49 85.32-6.17C85.04-5.86 84.82-5.48 84.66-5.03C84.51-4.58 84.43-4.07 84.43-3.51ZM90.37-7.02L90.37 0L91.26 0L91.26-7.02ZM92.62-7.02L92.62 0L93.47 0L93.47-3.67C93.47-4.04 93.45-4.41 93.43-4.78C93.40-5.14 93.38-5.51 93.35-5.86L93.39-5.86L94.15-4.42L96.70 0L97.62 0L97.62-7.02L96.77-7.02L96.77-3.39C96.77-3.02 96.78-2.64 96.81-2.26C96.83-1.88 96.86-1.51 96.88-1.16L96.84-1.16L96.08-2.61L93.54-7.02ZM98.57-3.51C98.57-2.94 98.65-2.43 98.80-1.97C98.96-1.52 99.18-1.14 99.46-0.83C99.73-0.52 100.07-0.28 100.45-0.12C100.84 0.05 101.26 0.13 101.72 0.13C102.19 0.13 102.62 0.05 102.99-0.10C103.37-0.26 103.67-0.45 103.90-0.68L103.90-3.64L101.60-3.64L101.60-2.90L103.08-2.90L103.08-1.07C102.94-0.94 102.76-0.84 102.53-0.77C102.31-0.69 102.07-0.65 101.82-0.65C101.44-0.65 101.11-0.72 100.82-0.86C100.53-0.99 100.29-1.18 100.09-1.43C99.90-1.68 99.75-1.98 99.64-2.34C99.54-2.69 99.49-3.09 99.49-3.53C99.49-3.97 99.54-4.36 99.65-4.71C99.76-5.06 99.92-5.36 100.12-5.60C100.32-5.85 100.56-6.04 100.85-6.17C101.13-6.30 101.45-6.37 101.81-6.37C102.17-6.37 102.46-6.30 102.69-6.18C102.92-6.05 103.13-5.90 103.31-5.71L103.81-6.28C103.60-6.49 103.34-6.69 103.01-6.87C102.69-7.06 102.28-7.15 101.80-7.15C101.33-7.15 100.90-7.06 100.50-6.90C100.11-6.73 99.77-6.49 99.48-6.17C99.19-5.86 98.97-5.48 98.81-5.03C98.65-4.58 98.57-4.07 98.57-3.51ZM106.60-7.02L106.60 0L107.42 0L107.42-3.86C107.42-4.18 107.41-4.52 107.38-4.90C107.35-5.28 107.33-5.62 107.31-5.94L107.35-5.94L107.91-4.38L109.26-0.71L109.77-0.71L111.12-4.38L111.68-5.94L111.73-5.94C111.70-5.62 111.67-5.28 111.65-4.90C111.62-4.52 111.61-4.18 111.61-3.86L111.61 0L112.45 0L112.45-7.02L111.40-7.02L110.06-3.25L109.56-1.82L109.52-1.82L109.01-3.25L107.65-7.02ZM116.80-2.86L114.69-2.86L115.02-3.93C115.15-4.32 115.27-4.71 115.38-5.10C115.50-5.49 115.61-5.88 115.71-6.29L115.76-6.29C115.87-5.88 115.99-5.49 116.10-5.10C116.21-4.71 116.34-4.32 116.46-3.93ZM117.02-2.14L117.68 0L118.64 0L116.26-7.02L115.25-7.02L112.88 0L113.79 0L114.46-2.14ZM119.06-7.02L119.06 0L120.86 0C121.39 0 121.86-0.08 122.26-0.24C122.67-0.40 123.01-0.63 123.29-0.94C123.57-1.24 123.78-1.61 123.92-2.05C124.06-2.49 124.13-2.99 124.13-3.54C124.13-4.66 123.85-5.52 123.29-6.12C122.73-6.72 121.90-7.02 120.82-7.02ZM120.75-0.73L119.95-0.73L119.95-6.29L120.75-6.29C121.57-6.29 122.19-6.06 122.60-5.59C123.01-5.11 123.21-4.43 123.21-3.54C123.21-2.65 123.01-1.96 122.60-1.47C122.19-0.97 121.57-0.73 120.75-0.73ZM125.07-7.02L125.07 0L129.23 0L129.23-0.76L125.96-0.76L125.96-3.31L128.63-3.31L128.63-4.07L125.96-4.07L125.96-6.27L129.12-6.27L129.12-7.02ZM131.76-1.53L131.22-0.91C131.53-0.59 131.89-0.34 132.32-0.15C132.74 0.04 133.19 0.13 133.68 0.13C134.06 0.13 134.39 0.08 134.68-0.03C134.97-0.13 135.22-0.27 135.43-0.45C135.64-0.64 135.79-0.85 135.90-1.09C136.02-1.33 136.07-1.59 136.07-1.87C136.07-2.13 136.03-2.36 135.96-2.55C135.88-2.75 135.78-2.92 135.65-3.07C135.53-3.21 135.37-3.34 135.19-3.45C135.02-3.56 134.83-3.66 134.63-3.74L133.63-4.17C133.49-4.23 133.35-4.29 133.21-4.36C133.08-4.43 132.95-4.51 132.84-4.60C132.73-4.68 132.63-4.79 132.57-4.91C132.50-5.02 132.46-5.17 132.46-5.34C132.46-5.66 132.58-5.91 132.82-6.09C133.06-6.28 133.38-6.37 133.77-6.37C134.10-6.37 134.39-6.31 134.65-6.19C134.91-6.07 135.15-5.91 135.36-5.70L135.85-6.28C135.60-6.54 135.29-6.75 134.94-6.91C134.58-7.07 134.19-7.15 133.77-7.15C133.45-7.15 133.16-7.10 132.89-7.01C132.62-6.92 132.39-6.79 132.19-6.62C132.00-6.45 131.84-6.25 131.73-6.02C131.62-5.80 131.57-5.55 131.57-5.29C131.57-5.03 131.61-4.80 131.69-4.61C131.78-4.41 131.89-4.24 132.03-4.10C132.16-3.96 132.32-3.83 132.49-3.73C132.66-3.63 132.83-3.55 132.99-3.48L134.00-3.04C134.16-2.96 134.31-2.89 134.46-2.81C134.60-2.74 134.72-2.66 134.82-2.57C134.93-2.48 135.01-2.38 135.07-2.25C135.13-2.13 135.16-1.98 135.16-1.80C135.16-1.46 135.03-1.18 134.78-0.97C134.52-0.76 134.16-0.65 133.70-0.65C133.33-0.65 132.98-0.73 132.64-0.89C132.30-1.05 132.01-1.27 131.76-1.53ZM136.88-7.02L136.88 0L137.77 0L137.77-7.02ZM139.13-7.02L139.13 0L139.95 0L139.95-3.86C139.95-4.18 139.94-4.52 139.91-4.90C139.88-5.28 139.86-5.62 139.83-5.94L139.88-5.94L140.43-4.38L141.79-0.71L142.30-0.71L143.64-4.38L144.21-5.94L144.25-5.94C144.22-5.62 144.20-5.28 144.17-4.90C144.15-4.52 144.14-4.18 144.14-3.86L144.14 0L144.98 0L144.98-7.02L143.93-7.02L142.58-3.25L142.09-1.82L142.05-1.82L141.54-3.25L140.18-7.02ZM146.34-7.02L146.34 0L147.23 0L147.23-2.78L148.49-2.78C148.87-2.78 149.23-2.83 149.54-2.92C149.86-3.00 150.13-3.14 150.36-3.32C150.59-3.50 150.77-3.72 150.89-3.99C151.02-4.26 151.08-4.58 151.08-4.95C151.08-5.34 151.02-5.66 150.89-5.93C150.77-6.19 150.59-6.40 150.37-6.56C150.14-6.72 149.87-6.84 149.55-6.91C149.23-6.98 148.87-7.02 148.49-7.02ZM148.38-3.51L147.23-3.51L147.23-6.30L148.38-6.30C148.99-6.30 149.44-6.20 149.74-6.01C150.04-5.81 150.19-5.46 150.19-4.95C150.19-4.45 150.04-4.09 149.75-3.86C149.45-3.63 149.00-3.51 148.38-3.51ZM151.93-7.02L151.93 0L155.89 0L155.89-0.76L152.82-0.76L152.82-7.02ZM156.56-7.02L156.56 0L160.72 0L160.72-0.76L157.45-0.76L157.45-3.31L160.12-3.31L160.12-4.07L157.45-4.07L157.45-6.27L160.61-6.27L160.61-7.02Z" transform="translate(-0.9629673661059264, 7.147357783986209)"></path></g></g></g></g></g><defs v-gra="od"><linearGradient x1="0" y1="1" x2="0" y2="0" id="7b533711-bcf2-401a-ac86-7205425b2f45"><stop offset="0%" stop-color="#fc62db"></stop><stop offset="50%" stop-color="#87ebff"></stop><stop offset="100%" stop-color="#175bec"></stop></linearGradient><filter id="42443b3f1de60f6b6fd3b6a9844b4764" filterUnits="objectBoundingBox"><feColorMatrix type="matrix" values="0 0 0 0 0.99609375  0 0 0 0 0.99609375  0 0 0 0 0.99609375  0 0 0 1 0"></feColorMatrix></filter></defs><defs v-gra="id"><filter id="2b5a5eb4-e864-4ff6-be3e-e3dcef8a75b1" filterUnits="userSpaceOnUse"><feColorMatrix type="matrix" values="0 0 0 0 0.99609375  0 0 0 0 0.99609375  0 0 0 0 0.99609375  0 0 0 1 0"></feColorMatrix></filter><linearGradient x1="0" y1="1" x2="0" y2="0" id="CCBNUY351ajdJ4jOz34mW"><stop offset="0%" stop-color="#fc62db"></stop><stop offset="50%" stop-color="#87ebff"></stop><stop offset="100%" stop-color="#175bec"></stop></linearGradient><filter id="42443b3f1de60f6b6fd3b6a9844b4764" filterUnits="objectBoundingBox"><feColorMatrix type="matrix" values="0 0 0 0 0.99609375  0 0 0 0 0.99609375  0 0 0 0 0.99609375  0 0 0 1 0"></feColorMatrix></filter></defs><mask v-gra="im" id="0b8d6736-680e-4a90-a869-4c390e4ba3be"><g class="iconsvg-imagesvg" filter="url(#2b5a5eb4-e864-4ff6-be3e-e3dcef8a75b1)"><g><rect fill="#0a0619" fill-opacity="0" stroke-width="2" x="0" y="0" width="60" height="59.239366533707205" class="image-rect"></rect> <svg x="0" y="0" width="60" height="59.239366533707205" filtersec="colorsf3615703699" class="image-svg-svg primary" style="overflow: visible;"><svg xmlns="http://www.w3.org/2000/svg" viewBox="-0.014171361923217773 0.011914417147636414 62.5697135925293 61.77642822265625"><path d="M7.76 21.64v13.92A2.1 2.1 0 0 0 9.59 38c9.32 2.44 18.62 5 27.92 7.45 3.06.82 3.07.8 3.07 3.89v9.1a1.74 1.74 0 0 1-1.53 2c-1.57.36-3.11.81-4.65 1.24-1.08.3-1.54 0-1.52-1.19 0-2-.09-4.06 0-6.07.11-1.64-.57-2.28-2.09-2.67-9.49-2.49-19-5.11-28.44-7.58C.57 43.72 0 42.92 0 41Q.15 25.4 0 9.78C0 8.07.55 7.28 2.2 7a30.4 30.4 0 0 0 4-1c1.19-.36 1.62 0 1.61 1.24-.08 4.76-.06 9.58-.05 14.4zM54.7 40.38c0-4.52-.05-9 0-13.57a2.19 2.19 0 0 0-1.93-2.59c-9.56-2.49-19.07-5.12-28.63-7.59-1.79-.46-2.4-1.24-2.33-3.06.19-3.27.19-6.57.04-9.82a2.15 2.15 0 0 1 2-2.56 33.62 33.62 0 0 0 3.79-1c1.33-.41 2-.18 1.92 1.41-.1 2.2.05 4.41 0 6.61a1.89 1.89 0 0 0 1.68 2.23c9.37 2.47 18.73 5 28.1 7.52 3.1.83 3.1.81 3.1 4v30c0 1.66-.43 2.56-2.14 2.83a34.94 34.94 0 0 0-3.62.93c-1.92.51-2 .47-2-1.59q.02-6.87.02-13.75z" fill="#000000"></path><path d="M10.86 19.91V6.71c0-1.53.5-2.3 2-2.57a28.93 28.93 0 0 0 4-1.06c1.51-.5 2 0 2 1.55-.05 7.26 0 14.52 0 21.77 0 2.73 0 2.73 2.63 3.44 5.74 1.54 11.47 3.12 17.23 4.59 1.5.38 2.07 1.08 2 2.6s0 3.09 0 4.63c0 1.07-.37 1.53-1.54 1.21q-13.58-3.63-27.01-7.21c-1.25-.33-1.32-1.19-1.31-2.18z" fill="#000000"></path><path d="M51.6 42v13c0 1.47-.38 2.35-2 2.62-1.34.22-2.64.7-4 1-1.87.47-2 .37-2-1.64 0-7.32-.06-14.65 0-22 0-1.74-.52-2.52-2.24-2.94-5.83-1.38-11.73-3.04-17.67-4.55-1.34-.34-1.91-1-1.82-2.35a33.16 33.16 0 0 0 0-4.11c-.1-1.61.52-1.94 2-1.53 6.65 1.84 13.33 3.6 20 5.39 1.95.53 3.88 1.15 5.86 1.55 1.48.3 1.9 1.08 1.88 2.49-.05 4.35-.01 8.7-.01 13.07zM62.41 11.66c-.07 4.37.64 4.22-4 3C50.6 12.59 42.79 10.49 35 8.49c-1.53-.39-2.23-1-2.07-2.68a25.51 25.51 0 0 0 0-4.1c-.12-1.62.49-1.94 2-1.53 6.25 1.73 12.51 3.39 18.77 5.07 2.13.58 4.23 1.25 6.39 1.66 1.86.36 2.72 1.22 2.4 3.15a10.67 10.67 0 0 0-.08 1.6zM29.56 58.21c0 3.88 0 3.89-3.76 2.9C17.87 59 10 56.89 2 54.86c-1.48-.38-2.12-1-2-2.58a22.24 22.24 0 0 0 0-3.74c-.09-1.65.57-1.93 2-1.54 6.53 1.81 13.08 3.56 19.62 5.33 1.84.5 3.65 1.12 5.52 1.46S29.9 55 29.57 57a7.44 7.44 0 0 0-.01 1.21z" fill="#000000"></path></svg></svg> <defs><filter id="colors4334318546"><feColorMatrix type="matrix" values="0 0 0 0 0.0390625  0 0 0 0 0.0234375  0 0 0 0 0.09765625  0 0 0 1 0" class="icon-fecolormatrix"></feColorMatrix></filter> <filter id="colorsf3615703699"><feColorMatrix type="matrix" values="0 0 0 0 0.99609375  0 0 0 0 0.99609375  0 0 0 0 0.99609375  0 0 0 1 0" class="icon-fecolormatrix"></feColorMatrix></filter> <filter id="colorsb566935823"><feColorMatrix type="matrix" values="0 0 0 0 0  0 0 0 0 0  0 0 0 0 0  0 0 0 1 0" class="icon-fecolormatrix"></feColorMatrix></filter></defs></g></g></mask></g></svg>